# xmcd
#
# Track frame offsets: 
#        150
#        19279
#        33594
#        50980
#        70294
#        86359
#        103183
#        118875
#        134149
#        147245
#        173453
#        194265
#        206456
#        225594
#        246867
#
# Disc length: 3598 seconds
#
# Revision: 0
# Processed by: cddbd v1.5.1PL0 Copyright (c) Steve Scherf et al.
# Submitted via: ExactAudioCopy v0.95a4
#
DISCID=df0e0c0f
DTITLE=Rosco Gordon - No Dark in America
DYEAR=2004
DGENRE=Blues
TTITLE0=No Dark in America
TTITLE1=Cheese and Crackers
TTITLE2=Early in the Morning
TTITLE3=A Night in Rio
TTITLE4=Girl in my World
TTITLE5=You Don't Care About Nothing
TTITLE6=I am the One
TTITLE7=That's What You do to Me
TTITLE8=You Look Bad When You're Naked
TTITLE9=Love on Top of Love
TTITLE10=Takes a Lot of Loving
TTITLE11=Are you Mine?
TTITLE12=When Baby Come Home
TTITLE13=One More Time
TTITLE14=Now You're Gone
EXTD=
EXTT0=
EXTT1=
EXTT2=
EXTT3=
EXTT4=
EXTT5=
EXTT6=
EXTT7=
EXTT8=
EXTT9=
EXTT10=
EXTT11=
EXTT12=
EXTT13=
EXTT14=
PLAYORDER=
